<svg width="202" height="50" viewBox="0 0 202 50" fill="none" xmlns="http://www.w3.org/2000/svg">
<path d="M37.5 4.16666H12.5C10.2083 4.16666 8.33331 6.04166 8.33331 8.33332V41.6667C8.33331 43.9583 10.2083 45.8333 12.5 45.8333H37.5C39.7916 45.8333 41.6666 43.9583 41.6666 41.6667V8.33332C41.6666 6.04166 39.7916 4.16666 37.5 4.16666ZM18.75 8.33332H22.9166V18.75L20.8333 17.1875L18.75 18.75V8.33332ZM37.5 41.6667H12.5V8.33332H14.5833V27.0833L20.8333 22.3958L27.0833 27.0833V8.33332H37.5V41.6667Z" fill="white"/>
<path d="M78.24 15.456V35H74.32V22.288L69.084 35H66.116L60.852 22.288V35H56.932V15.456H61.384L67.6 29.988L73.816 15.456H78.24ZM96.9556 19.488L87.3516 42.336H83.1796L86.5396 34.608L80.3236 19.488H84.7196L88.7236 30.324L92.7836 19.488H96.9556ZM109.661 31.892H116.101V35H105.741V15.456H109.661V31.892ZM120.58 17.64C119.889 17.64 119.311 17.4253 118.844 16.996C118.396 16.548 118.172 15.9973 118.172 15.344C118.172 14.6907 118.396 14.1493 118.844 13.72C119.311 13.272 119.889 13.048 120.58 13.048C121.271 13.048 121.84 13.272 122.288 13.72C122.755 14.1493 122.988 14.6907 122.988 15.344C122.988 15.9973 122.755 16.548 122.288 16.996C121.84 17.4253 121.271 17.64 120.58 17.64ZM122.512 19.488V35H118.592V19.488H122.512ZM130.305 21.756C130.809 21.0093 131.5 20.4027 132.377 19.936C133.273 19.4693 134.29 19.236 135.429 19.236C136.754 19.236 137.949 19.5627 139.013 20.216C140.096 20.8693 140.945 21.8027 141.561 23.016C142.196 24.2107 142.513 25.6013 142.513 27.188C142.513 28.7747 142.196 30.184 141.561 31.416C140.945 32.6293 140.096 33.572 139.013 34.244C137.949 34.916 136.754 35.252 135.429 35.252C134.272 35.252 133.254 35.028 132.377 34.58C131.518 34.1133 130.828 33.516 130.305 32.788V35H126.385V14.28H130.305V21.756ZM138.509 27.188C138.509 26.2547 138.313 25.452 137.921 24.78C137.548 24.0893 137.044 23.5667 136.409 23.212C135.793 22.8573 135.121 22.68 134.393 22.68C133.684 22.68 133.012 22.8667 132.377 23.24C131.761 23.5947 131.257 24.1173 130.865 24.808C130.492 25.4987 130.305 26.3107 130.305 27.244C130.305 28.1773 130.492 28.9893 130.865 29.68C131.257 30.3707 131.761 30.9027 132.377 31.276C133.012 31.6307 133.684 31.808 134.393 31.808C135.121 31.808 135.793 31.6213 136.409 31.248C137.044 30.8747 137.548 30.3427 137.921 29.652C138.313 28.9613 138.509 28.14 138.509 27.188ZM149.282 21.896C149.786 21.0747 150.439 20.4307 151.242 19.964C152.063 19.4973 152.996 19.264 154.042 19.264V23.38H153.006C151.774 23.38 150.84 23.6693 150.206 24.248C149.59 24.8267 149.282 25.8347 149.282 27.272V35H145.362V19.488H149.282V21.896ZM155.674 27.188C155.674 25.62 155.982 24.2293 156.598 23.016C157.233 21.8027 158.082 20.8693 159.146 20.216C160.229 19.5627 161.433 19.236 162.758 19.236C163.915 19.236 164.923 19.4693 165.782 19.936C166.659 20.4027 167.359 20.9907 167.882 21.7V19.488H171.83V35H167.882V32.732C167.378 33.46 166.678 34.0667 165.782 34.552C164.905 35.0187 163.887 35.252 162.73 35.252C161.423 35.252 160.229 34.916 159.146 34.244C158.082 33.572 157.233 32.6293 156.598 31.416C155.982 30.184 155.674 28.7747 155.674 27.188ZM167.882 27.244C167.882 26.292 167.695 25.48 167.322 24.808C166.949 24.1173 166.445 23.5947 165.81 23.24C165.175 22.8667 164.494 22.68 163.766 22.68C163.038 22.68 162.366 22.8573 161.75 23.212C161.134 23.5667 160.63 24.0893 160.238 24.78C159.865 25.452 159.678 26.2547 159.678 27.188C159.678 28.1213 159.865 28.9427 160.238 29.652C160.63 30.3427 161.134 30.8747 161.75 31.248C162.385 31.6213 163.057 31.808 163.766 31.808C164.494 31.808 165.175 31.6307 165.81 31.276C166.445 30.9027 166.949 30.38 167.322 29.708C167.695 29.0173 167.882 28.196 167.882 27.244ZM179.579 21.896C180.083 21.0747 180.736 20.4307 181.539 19.964C182.36 19.4973 183.293 19.264 184.339 19.264V23.38H183.303C182.071 23.38 181.137 23.6693 180.503 24.248C179.887 24.8267 179.579 25.8347 179.579 27.272V35H175.659V19.488H179.579V21.896ZM201.819 19.488L192.215 42.336H188.043L191.403 34.608L185.187 19.488H189.583L193.587 30.324L197.647 19.488H201.819Z" fill="white"/>
</svg>
